<svg xmlns="http://www.w3.org/2000/svg" height="48" width="48"><path fill="#fff" d="M 25 4 c -0.332 0 -0.66 0.023 -0.987 0.07 c -1.867 -2.544 -4.814 -4.07 -8.013 -4.07 s -6.145 1.526 -8.013 4.07 c -0.327 -0.047 -0.655 -0.07 -0.987 -0.07 c -3.859 0 -7 3.141 -7 7 s 3.141 7 7 7 c 0.856 0 1.693 -0.156 2.482 -0.458 c 1.81 1.578 4.112 2.458 6.518 2.458 c 2.409 0 4.708 -0.88 6.518 -2.458 c 0.789 0.302 1.626 0.458 2.482 0.458 c 3.859 0 7 -3.141 7 -7 s -3.141 -7 -7 -7 Z M 25 16 c -1.07 0 -2.057 -0.344 -2.871 -0.917 c -1.467 1.768 -3.652 2.917 -6.129 2.917 s -4.662 -1.148 -6.129 -2.917 c -0.813 0.573 -1.801 0.917 -2.871 0.917 c -2.762 0 -5 -2.238 -5 -5 s 2.238 -5 5 -5 c 0.676 0 1.316 0.138 1.902 0.38 c 1.327 -2.588 3.991 -4.38 7.098 -4.38 s 5.771 1.792 7.096 4.38 c 0.587 -0.242 1.229 -0.38 1.904 -0.38 c 2.762 0 5 2.238 5 5 s -2.238 5 -5 5 Z M 14.063 30 c 0 1.105 0.895 2 2 2 s 2 -0.895 2 -2 s -2 -4 -2 -4 s -2 2.895 -2 4 Z M 22 28 c 0 1.105 0.895 2 2 2 s 2 -0.895 2 -2 s -2 -4 -2 -4 s -2 2.895 -2 4 Z M 6 24 c 0 1.105 0.894 2 2 2 s 2 -0.895 2 -2 s -2 -4 -2 -4 s -2 2.895 -2 4 Z"/></svg>